<svg xmlns="http://www.w3.org/2000/svg" xmlns:xlink="http://www.w3.org/1999/xlink" width="347.823" height="171.633" viewBox="0 0 347.823 171.633"><defs><clipPath id="a"><path d="M0-197.506H347.823V-369.139H0Z" transform="translate(0 369.139)" fill="#fff"/></clipPath></defs><g transform="translate(0 0)"><g clip-path="url(#a)"><g transform="translate(38.708 114.775)"><path d="M-29.583-40.38c0-6.693-6.943-8.569-12.009-9.883-3.628-.938-7.569-1.564-7.569-4.5,0-2.627,3.127-4.5,6.63-4.5,6.943,0,7.256,5.192,7.256,9.382h5c0-4.253-.563-13.761-12.2-13.761-6.38,0-11.7,3.315-11.7,8.882,0,6.442,6.755,7.944,11.321,9.257,3.5.938,8.257,2,8.257,5.129,0,3.565-4.128,4.754-7.256,4.754-4.191,0-8.319-2.064-8.319-6h-5.129C-55.291-35.876-50.412-31-41.843-31c7.381,0,12.259-3.628,12.259-9.382M5.256-42.131V-54.954c0-5.567-4.816-8.632-11.2-8.632-12.259,0-12.7,8.632-12.7,13.511h4.879c0-4.816,1.689-9.132,7.694-9.132,3.5,0,6.38,1.626,6.442,4.253v3.44C-7-50.513-19.576-49.7-19.576-40.192c0,5.629,4.629,9.382,11.009,9.382A11.616,11.616,0,0,0,.815-35L1.5-36.064c1.564,3.253,4.879,4.441,10.508,4.5v-4.5c-4.441-.125-6.755-1.126-6.755-6.067M-14.7-40.067c0-4.754,7.443-5.755,15.074-6.505C.252-33.5-14.7-33.124-14.7-40.067M44.85-57.518c-2.627-7.569-13.948-8.382-19.7-.251V-62.96h-5v31.274h5V-48.762c0-9.695,15.262-13.573,15.262-6.255v23.331h5V-48.762c0-9.695,15.262-13.573,15.262-6.255v23.331h5v-22.33c0-10.634-14.262-12.635-20.829-3.5m57.42,0c-2.627-7.569-13.949-8.382-19.7-.251V-62.96h-5v31.274h5V-48.762c0-9.695,15.262-13.573,15.262-6.255v23.331h5V-48.762c0-9.695,15.262-13.573,15.262-6.255v23.331h5v-22.33c0-10.634-14.261-12.635-20.829-3.5m38.092,25.832-2.252-7.694V-75.47h-5v36.091l2.252,7.694Zm35.59-10.633-.125-20.641h-5v21.58c0,7.131-15.324,7.256-15.449,0V-62.96h-5v21.58c.062,11.384,16.013,13.2,22.705,6.755,1.814,2.252,4.941,3.19,9.633,3.19v-4.5c-4.441,0-6.755-1.439-6.755-6.38M190.838-62.96v31.274h5V-48.762c0-9.695,15.262-13.573,15.262-6.255v23.331h5v-22.33c0-10.7-13.761-13.01-20.266-3.753V-62.96Zm57.982,0v2.877a13.817,13.817,0,0,0-8.507-3.378c-8.506,0-14.2,7.193-14.2,16.075,0,10.008,6.755,16.7,14.011,16.763a11.386,11.386,0,0,0,8.694-3.565c0,6.943-2.94,10.571-8.694,10.571A8.929,8.929,0,0,1,231.181-33l-5.066-.062c0,10.2,7.068,14.511,14.011,14.448,8.069.063,13.511-4.378,13.511-15.575l.187-28.772Zm-8.694,27.334c-5.442,0-8.945-5.317-8.945-11.321,0-6.755,3.816-11.634,8.945-11.634,5.379,0,8.757,4.879,8.757,11.384,0,6.255-3.69,11.571-8.757,11.571" transform="translate(55.291 75.47)" fill="#fff"/></g><g transform="translate(0 60.461)"><path d="M-25.84-.36V14.651a14.106,14.106,0,0,0-8.819-3.127c-7.381.125-13.7,6.755-13.636,16.263,0,9.445,5.879,16.513,13.761,16.513a11.8,11.8,0,0,0,8.694-3.94v3.127h5V-.3Zm-8.632,39.781c-5.317,0-8.819-5.317-8.819-11.321,0-6.755,3.815-11.634,8.819-11.634,5.5,0,8.882,4.879,8.882,11.384,0,6.255-3.69,11.571-8.882,11.571M-3.949,5.582A3.137,3.137,0,0,0-.822,2.455,3.137,3.137,0,0,0-3.949-.673,3.137,3.137,0,0,0-7.076,2.455,3.137,3.137,0,0,0-3.949,5.582m2.252,6.63h-5l-2.252,7.694V43.487h5V19.906Zm30.212,0v3.941C21.509,16.153,9,17.4,6.373,28.162,3.62,41.485,18.694,48.991,28.515,40.8c0,6.88-2.377,10.258-12.572,10.258v5c13.7,0,17.576-4.066,17.576-15.262V12.212ZM11.376,29.6c1.5-7.693,13.386-8.756,17.138-8.756V35.793c-7.631,6.192-18.952,3.19-17.138-6.193M49.155,5.957A3.127,3.127,0,1,0,46.028,2.83a3.136,3.136,0,0,0,3.127,3.127m2.564,6.255h-5V39.546c0,3.565,2.189,4.879,4.441,4.879,2.814.063,4.191-1.876,4.879-5.066l1.689-7.569H53.346L51.72,39.359ZM86.31,16.4H75.489V2.83h-5V16.4H64.606v4.378h5.879V36.419l-2.127,7.068h5l2.127-7.068V20.781H86.31ZM115.77,34.355V21.219c0-6.818-4.816-15.012-18.389-8.444V17.4c10.258-4.942,13.448-2.189,13.448,3.815a9.948,9.948,0,0,0-7.256-3.378c-5.942,0-11.634,5.692-11.634,13.323,0,6.88,5.567,13.385,11.572,13.385a10.7,10.7,0,0,0,8.632-3.878l.125-.188c1.376,2.064,3.815,3,7.756,3V38.733c-3.065,0-4.253-.563-4.253-4.378M103.636,39.8c-4.191,0-6.943-3.69-6.943-8.444,0-5.379,3-8.757,6.943-8.757,4.316,0,7.068,3.378,7.068,8.57,0,4.941-3,8.631-7.068,8.631m31.774,3.69-2.252-7.693V-.3h-5V35.793l2.252,7.693Zm38.155-14.574c0-9.32-6-17.326-14.949-17.326-8.007,0-15.074,7.068-15.074,16.388,0,9.445,7.256,16.575,15.262,16.575a11.942,11.942,0,0,0,8.007-2.814l-3.628-3.128a9.068,9.068,0,0,1-4.379,1.063c-5.379,0-9.883-4.941-10.321-10.758ZM148.92,24.535c1.251-4.629,5.067-8.069,9.7-8.069,5.066,0,8.194,3.628,9.445,8.069Z" transform="translate(48.296 0.673)" fill="#fff"/></g><g transform="translate(77.258 0)"><path d="M-14.684-7.2a3.137,3.137,0,0,0,3.127-3.127,3.137,3.137,0,0,0-3.127-3.128,3.137,3.137,0,0,0-3.127,3.128A3.137,3.137,0,0,0-14.684-7.2M-16.81,29.268c0,5.692-2.439,8.82-10.634,8.82v5c12.385,0,15.637-3.69,15.637-13.824V-.568h-5Zm50.852,1.439L27.286-.568h-5V21.012c0,7.131-13.949,7.256-14.074,0V-.568h-5V20.386c0,4.942-2.189,6.38-6.63,6.38v4.441c4.629,0,7.694-.876,9.507-3,6.38,6.193,21.2,3.378,21.2-7.193v-.188L29.6,30.707ZM44.049-.568V30.707h5V13.631c0-9.7,15.262-13.573,15.262-6.255V30.707h5V8.377c0-10.7-13.761-13.01-20.266-3.753V-.568Zm57.982,0V2.309a13.817,13.817,0,0,0-8.506-3.377c-8.507,0-14.2,7.193-14.2,16.075,0,10.008,6.755,16.7,14.011,16.763a11.386,11.386,0,0,0,8.694-3.565c0,6.943-2.94,10.571-8.694,10.571a8.929,8.929,0,0,1-8.944-9.382l-5.067-.062c0,10.2,7.068,14.511,14.011,14.449,8.069.062,13.511-4.378,13.511-15.575l.187-28.772ZM93.337,26.766c-5.442,0-8.944-5.317-8.944-11.321,0-6.755,3.815-11.634,8.944-11.634,5.379,0,8.757,4.879,8.757,11.384,0,6.255-3.69,11.571-8.757,11.571M129.928,25.7a6.883,6.883,0,0,1-5.942-3.628l20.766.062c2.627-7.881,1.626-20.2-8.82-22.893C128.176-2.507,119.544,2.5,117.48,11.567c-2.127,9.195,3.565,19.14,11.321,19.14h19.391v-5Zm-7.443-13.01c1.376-6.068,6.818-9.7,12.385-8.445,6.505,2,6.63,8.695,5.817,13.135H122.3a13.174,13.174,0,0,1,.188-4.691" transform="translate(27.444 13.453)" fill="#fff"/></g></g></g></svg>